# xmcd
#
# Track frame offsets:
# 150
# 20124
# 35659
# 49192
# 67078
# 89739
# 108309
# 130709
# 145809
# 164353
# 178875
# 192543
# 204626
# 217890
#
# Disc length: 3062 seconds
#
#
# Revision: 0
# Processed by: cddbd v1.5.2PL0 Copyright (c) Steve Scherf et al.
# Submitted via: FreeRIP 2.91 
#
DISCID=db0bf40e
DTITLE=HighLiners - The Ultimate Country Line Dancing Album - CD1
DYEAR=1997
DGENRE=Country
TTITLE0=Boot scootin' boogie
TTITLE1=I feel lucky
TTITLE2=Money in the bank
TTITLE3=T-R-O-U-B-L-E
TTITLE4=Lost and found
TTITLE5=Don't rock the jukebox
TTITLE6=Blame it on your heart
TTITLE7=Workin' man's PH.D.
TTITLE8=Texas tattoo
TTITLE9=Great balls of fire
TTITLE10=Watermelon crawl
TTITLE11=Wink
TTITLE12=That's my story
TTITLE13=If Bubba can dance
EXTD=
EXTT0=
EXTT1=
EXTT2=
EXTT3=
EXTT4=
EXTT5=
EXTT6=
EXTT7=
EXTT8=
EXTT9=
EXTT10=
EXTT11=
EXTT12=
EXTT13=
PLAYORDER=
